<?xml version="1.0" encoding="UTF-8" standalone="no"?>
<!-- Created with Inkscape (http://www.inkscape.org/) -->

<svg
   xmlns:dc="http://purl.org/dc/elements/1.1/"
   xmlns:cc="http://creativecommons.org/ns#"
   xmlns:rdf="http://www.w3.org/1999/02/22-rdf-syntax-ns#"
   xmlns:svg="http://www.w3.org/2000/svg"
   xmlns="http://www.w3.org/2000/svg"
   xmlns:xlink="http://www.w3.org/1999/xlink"
   xmlns:sodipodi="http://sodipodi.sourceforge.net/DTD/sodipodi-0.dtd"
   xmlns:inkscape="http://www.inkscape.org/namespaces/inkscape"
   width="40.955757mm"
   height="28.392134mm"
   viewBox="0 0 40.955757 28.392134"
   version="1.1"
   id="svg4633"
   inkscape:version="0.92.3 (unknown)"
   sodipodi:docname="brain.svg.2018_09_12_13_26_57.0.svg">
  <defs
     id="defs4627">
    <linearGradient
       inkscape:collect="always"
       xlink:href="#linearGradient4582-3"
       id="linearGradient4602"
       gradientUnits="userSpaceOnUse"
       x1="18.654634"
       y1="65.197159"
       x2="88.690308"
       y2="64.441208"
       gradientTransform="matrix(1.1981646,0,0,1.2817686,41.870171,-46.615296)" />
    <linearGradient
       inkscape:collect="always"
       id="linearGradient4582-3">
      <stop
         style="stop-color:#f5d772;stop-opacity:1;"
         offset="0"
         id="stop4578" />
      <stop
         style="stop-color:#ffbf33;stop-opacity:1"
         offset="1"
         id="stop4580" />
    </linearGradient>
  </defs>
  <sodipodi:namedview
     id="base"
     pagecolor="#ffffff"
     bordercolor="#666666"
     borderopacity="1.0"
     inkscape:pageopacity="0.0"
     inkscape:pageshadow="2"
     inkscape:zoom="1.979899"
     inkscape:cx="151.31132"
     inkscape:cy="43.227899"
     inkscape:document-units="mm"
     inkscape:current-layer="layer1"
     showgrid="false"
     fit-margin-top="0"
     fit-margin-left="0"
     fit-margin-right="0"
     fit-margin-bottom="0"
     inkscape:window-width="1920"
     inkscape:window-height="1150"
     inkscape:window-x="1920"
     inkscape:window-y="24"
     inkscape:window-maximized="1" />
  <metadata
     id="metadata4630">
    <rdf:RDF>
      <cc:Work
         rdf:about="">
        <dc:format>image/svg+xml</dc:format>
        <dc:type
           rdf:resource="http://purl.org/dc/dcmitype/StillImage" />
        <dc:title />
      </cc:Work>
    </rdf:RDF>
  </metadata>
  <g
     inkscape:label="Layer 1"
     inkscape:groupmode="layer"
     id="layer1"
     transform="translate(-64.188789,-22.756315)">
    <ellipse
       style="opacity:1;fill:none;fill-opacity:1;stroke:#000000;stroke-width:2;stroke-miterlimit:4;stroke-dasharray:none;stroke-opacity:1"
       id="path909"
       cx="90.38121"
       cy="56.293388"
       rx="21.782465"
       ry="21.44838" />
    <path
       style="opacity:1;fill:url(#linearGradient4602);fill-opacity:1;stroke:#000000;stroke-width:1.96546876;stroke-miterlimit:4;stroke-dasharray:none;stroke-opacity:1"
       d="m 84.666673,23.73905 a 19.495167,10.681441 0 0 0 -19.49515,10.681414 19.495167,10.681441 0 0 0 2.89895,5.58778 10.416187,6.5404526 0 0 0 -1.74544,3.61722 10.416187,6.5404526 0 0 0 10.41628,6.54025 10.416187,6.5404526 0 0 0 10.17108,-5.1486 19.495167,10.681441 0 0 0 0.63217,-0.0575 15.072159,4.6000614 0 0 1 -2.97077,-2.73363 15.072159,4.6000614 0 0 1 15.07181,-4.60016 15.072159,4.6000614 0 0 1 3.508827,0.1318 19.495167,10.681441 0 0 0 1.00738,-3.33703 19.495167,10.681441 0 0 0 -19.495137,-10.681415 z"
       id="path4564"
       inkscape:connector-curvature="0" />
    <path
       style="opacity:1;fill:none;fill-opacity:1;stroke:#000000;stroke-width:8.64210415;stroke-miterlimit:4;stroke-dasharray:none;stroke-opacity:1"
       d="M 301.27734 -155.79883 A 109.81763 58.804934 0 0 0 191.46094 -96.994141 A 109.81763 58.804934 0 0 0 199.27148 -75.269531 A 67.427681 33.840111 23.74247 0 0 197.63672 -72.373047 A 67.427681 33.840111 23.74247 0 0 245.73242 -14.248047 A 67.427681 33.840111 23.74247 0 0 321.07812 -18.076172 A 67.427681 33.840111 23.74247 0 0 318.72461 -38.964844 A 109.81763 58.804934 0 0 0 411.0957 -96.994141 A 109.81763 58.804934 0 0 0 301.27734 -155.79883 z "
       transform="matrix(0.26458333,0,0,0.26458333,64.188789,22.756315)"
       id="path907" />
    <ellipse
       style="opacity:1;fill:none;fill-opacity:1;stroke:#000000;stroke-width:2;stroke-miterlimit:4;stroke-dasharray:none;stroke-opacity:1"
       id="path913"
       cx="67.195595"
       cy="2.1713071"
       rx="6.7485552"
       ry="10.623963" />
  </g>
</svg>
